# xmcd
#
# Track frame offsets: 
#        150
#        47413
#        81675
#        108763
#        160466
#        170623
#        178258
#        217710
#        237167
#
# Disc length: 3679 seconds
#
# Revision: 0
# Processed by: cddbd v1.5.2PL0 Copyright (c) Steve Scherf et al.
# Submitted via: ExactAudioCopy v1.0b1
#
DISCID=720e5d09
DTITLE=Ginger Jam Band - From The Road
DYEAR=2011
DGENRE=Blues
TTITLE0=Set The For The Heart Of The Sun
TTITLE1=Letters
TTITLE2=Drive Baby
TTITLE3=Crosstown Bar Blues
TTITLE4=Jam
TTITLE5=Drums
TTITLE6=Winds Of Dust Part II
TTITLE7=Sugar Mama
TTITLE8=Gloria
EXTD=
EXTT0=
EXTT1=
EXTT2=
EXTT3=
EXTT4=
EXTT5=
EXTT6=
EXTT7=
EXTT8=
PLAYORDER=
